<svg width="156" height="32" viewBox="0 0 156 32" fill="none" xmlns="http://www.w3.org/2000/svg">
<path d="M31.0293 1.91626C31.2336 1.77151 31.5375 1.96577 31.4785 2.20923L30.582 5.91333C30.4572 6.42866 30.2452 6.92729 29.834 7.26196C29.1354 7.83044 27.7203 8.62036 25.2529 8.62036H13.6885C12.0113 8.62043 10.3711 9.11726 8.97656 10.0491C7.58217 10.9808 6.4954 12.3054 5.85352 13.8547C5.21168 15.4043 5.04294 17.1101 5.37012 18.7551C5.69733 20.4001 6.50546 21.9119 7.69141 23.0979C8.87735 24.2838 10.3893 25.091 12.0342 25.4182C13.679 25.7453 15.3841 25.5775 16.9336 24.9358C18.4832 24.2939 19.8084 23.2073 20.7402 21.8127C21.6721 20.4181 22.1689 18.7781 22.1689 17.1008H22.1699V10.676H24.708C27.0205 10.6759 28.5903 10.0029 29.3896 9.54614C29.6016 9.42515 29.9088 9.62424 29.8613 9.86353L29.2666 12.8391C29.0807 13.7687 28.5838 14.628 27.6992 14.969C27.4381 15.0697 27.1364 15.1656 26.7949 15.2483V17.1008C26.7949 19.693 26.026 22.2268 24.5859 24.3821C23.1458 26.5373 21.0989 28.2172 18.7041 29.2092C16.3092 30.2011 13.6732 30.461 11.1309 29.9553C8.58882 29.4495 6.25368 28.2011 4.4209 26.3684C2.58801 24.5354 1.33871 22.1998 0.833008 19.6575C0.327402 17.1153 0.587265 14.4799 1.5791 12.0852C2.57107 9.69037 4.25099 7.64256 6.40625 6.20239C8.56153 4.76228 11.0963 3.99446 13.6885 3.99438H25.2529C27.7505 3.99438 29.9779 2.66242 31.0293 1.91626ZM18.0576 17.1008C18.0576 18.2595 17.5966 19.3704 16.7773 20.1897C15.958 21.009 14.8471 21.47 13.6885 21.47C12.5298 21.47 11.4189 21.009 10.5996 20.1897C9.78031 19.3704 9.31937 18.2595 9.31934 17.1008H18.0576Z" fill="url(#paint0_radial_377_22346)"/>
<path d="M41.44 23.28C39.5333 23.28 38.2133 22.8667 37.48 22.04C36.9733 21.4533 36.72 20.6333 36.72 19.58C36.72 19.1267 36.7667 18.64 36.86 18.12L37.68 13.52C38.28 10.1467 40.4467 8.46 44.18 8.46C45.7267 8.46 46.9 8.79333 47.7 9.46C48.5 10.1133 48.9 11.0133 48.9 12.16C48.9 12.6933 48.82 13.2267 48.66 13.76C48.5133 14.28 48.3667 14.6667 48.22 14.92L48 15.32H44.46C44.9 14.8133 45.12 14.0933 45.12 13.16C45.12 12.6667 44.9933 12.28 44.74 12C44.4867 11.7067 44.1133 11.56 43.62 11.56C42.2733 11.56 41.4733 12.3067 41.22 13.8L40.52 17.84C40.4533 18.1867 40.42 18.5267 40.42 18.86C40.42 19.74 40.9467 20.18 42 20.18C43.2667 20.18 44.0267 19.4667 44.28 18.04H47.88L47.78 18.62C47.2467 21.7267 45.1333 23.28 41.44 23.28ZM57.1092 8.46C60.3226 8.46 61.9292 9.77333 61.9292 12.4C61.9292 12.84 61.8826 13.3133 61.7892 13.82L61.0892 17.82C60.7692 19.6733 60.0759 21.0467 59.0092 21.94C57.9426 22.8333 56.4426 23.28 54.5092 23.28C52.5759 23.28 51.2292 22.8333 50.4692 21.94C49.9492 21.3267 49.6892 20.48 49.6892 19.4C49.6892 18.92 49.7426 18.3933 49.8492 17.82L50.5492 13.82C51.1759 10.2467 53.3626 8.46 57.1092 8.46ZM55.0492 20.18C55.7159 20.18 56.2492 20.0067 56.6492 19.66C57.0492 19.3133 57.3292 18.6733 57.4892 17.74L58.1692 13.9C58.2092 13.6333 58.2292 13.3933 58.2292 13.18C58.2292 12.1 57.6826 11.56 56.5892 11.56C55.2159 11.5867 54.3959 12.3667 54.1292 13.9L53.4492 17.74C53.3959 18.0733 53.3692 18.42 53.3692 18.78C53.3692 19.7133 53.9292 20.18 55.0492 20.18ZM70.7505 8.6C72.4971 8.6 73.7438 9.04 74.4905 9.92C75.0371 10.5867 75.3105 11.42 75.3105 12.42C75.3105 12.78 75.2771 13.16 75.2105 13.56L74.4305 18.02C74.1638 19.5267 73.5105 20.7333 72.4705 21.64C71.4305 22.5467 70.0838 23 68.4305 23H62.6105L65.1505 8.6H70.7505ZM69.4905 11.72H68.1905L66.7705 19.88H68.6705C69.2971 19.88 69.7838 19.7133 70.1305 19.38C70.4905 19.0333 70.7371 18.4733 70.8705 17.7L71.4505 14.42C71.5038 14.1267 71.5305 13.86 71.5305 13.62C71.5305 12.3533 70.8505 11.72 69.4905 11.72ZM86.0294 23H75.9894L78.5294 8.6H88.5694L88.0094 11.72H81.5694L81.1094 14.42H86.4294L85.8694 17.54H80.5494L80.1494 19.88H86.5894L86.0294 23ZM98.1931 17.72H92.8731L91.9531 23H88.3331L90.8731 8.6H100.913L100.353 11.72H93.9131L93.4131 14.6H98.7331L98.1931 17.72ZM109.484 23H100.364L102.904 8.6H106.504L104.524 19.88H110.044L109.484 23ZM116.367 13.66L119.747 8.6H123.347L117.187 17.46L116.207 23H112.587L113.567 17.46L110.527 8.6H114.347L115.907 13.66H116.367ZM128.418 8.6L125.898 23H122.278L124.818 8.6H128.418ZM142.364 8.6L139.844 23H136.224L133.704 15.12L132.344 23H128.724L131.264 8.6H134.984L137.464 15.96L138.764 8.6H142.364ZM147.689 23.28C145.796 23.28 144.489 22.84 143.769 21.96C143.276 21.3467 143.029 20.5067 143.029 19.44C143.029 18.9467 143.082 18.4067 143.189 17.82L143.889 13.82C144.516 10.2467 146.702 8.46 150.449 8.46C151.996 8.46 153.169 8.79333 153.969 9.46C154.769 10.1133 155.169 11.0133 155.169 12.16C155.169 12.6267 155.102 13.1 154.969 13.58C154.849 14.06 154.729 14.42 154.609 14.66L154.409 15.02H150.869C151.216 14.54 151.389 13.9867 151.389 13.36C151.389 12.16 150.889 11.56 149.889 11.56C148.542 11.56 147.736 12.34 147.469 13.9L146.789 17.74C146.722 18.1 146.689 18.4533 146.689 18.8C146.689 19.72 147.229 20.18 148.309 20.18C149.402 20.18 150.102 19.6333 150.409 18.54H148.769L149.169 16.32H154.469L154.149 18.04L154.049 18.62C153.489 21.7267 151.369 23.28 147.689 23.28Z" fill="black"/>
<defs>
<radialGradient id="paint0_radial_377_22346" cx="0" cy="0" r="1" gradientTransform="matrix(27.9844 -25.8398 22.6308 31.9524 3.50223 25.6224)" gradientUnits="userSpaceOnUse">
<stop offset="0.104017" stop-color="#F186EF"/>
<stop offset="0.406801" stop-color="#FC643D"/>
<stop offset="0.658933" stop-color="#FFAB24"/>
<stop offset="0.956731" stop-color="#FFCC24"/>
</radialGradient>
</defs>
</svg>
